<?xml version="1.0" encoding="utf-8"?>
<!DOCTYPE svg PUBLIC "-//W3C//DTD SVG 1.1//EN" "http://www.w3.org/Graphics/SVG/1.1/DTD/svg11.dtd">
<svg version="1.1" id="图形" xmlns="http://www.w3.org/2000/svg" xmlns:xlink="http://www.w3.org/1999/xlink" x="0px" y="0px" width="1024px" height="1024px" viewBox="0 0 1024 1024" enable-background="new 0 0 1024 1024" xml:space="preserve">
  <path fill="#219AB3" d="M926.917973 774.19392C959.65184 774.19392 986.19392 747.65184 986.19392 714.917973L986.19392-114.917973C986.19392-147.65184 959.65184-174.19392 926.917973-174.19392L97.082027-174.19392C64.34816-174.19392 37.80608-147.65184 37.80608-114.917973L37.80608 714.917973C37.80608 747.65184 64.34816 774.19392 97.082027 774.19392zM176.653653 635.80032 176.653653 559.321173 825.658027 559.321173 825.658027 635.80032zM217.719467 495.853653 217.719467 183.91936 273.524053 183.91936 341.292373 41.60384 157.259093 41.60384 157.259093-33.417813 842.949973-33.417813 842.949973 41.60384 654.226773 41.60384 722.899627 183.91936 783.67744 183.91936 783.67744 495.853653zM684.885333 419.108267 684.885333 258.012587 312.576 258.012587 312.576 419.108267zM570.770773 41.60384 426.653013 41.60384 359.621973 183.91936 639.443627 183.91936z" transform="translate(0, 812) scale(1, -1)"/>
</svg>
